<?xml version="1.0" standalone="no"?>
<!DOCTYPE svg PUBLIC "-//W3C//DTD SVG 20010904//EN"
 "http://www.w3.org/TR/2001/REC-SVG-20010904/DTD/svg10.dtd">
<svg version="1.0" xmlns="http://www.w3.org/2000/svg"
 width="1175.000000pt" height="601.000000pt" viewBox="0 0 1175.000000 601.000000"
 preserveAspectRatio="xMidYMid meet">
<metadata>
Created by potrace 1.16, written by Peter Selinger 2001-2019
</metadata>
<g transform="translate(0.000000,601.000000) scale(0.100000,-0.100000)"
fill="#000000" stroke="none">
<path d="M6034 5848 c-63 -43 -74 -73 -50 -141 188 -541 2138 -4506 2554
-5194 67 -110 97 -139 136 -129 76 19 213 222 468 691 547 1008 2039 4002
2269 4554 21 51 39 106 39 121 0 86 -144 110 -675 110 -602 0 -1198 -25 -1355
-57 -173 -35 -217 -97 -209 -295 5 -105 25 -141 81 -146 63 -5 118 78 118 179
0 34 60 85 121 103 41 13 94 17 219 17 192 -1 250 -7 250 -28 0 -17 -398 -808
-1245 -2473 -332 -652 -616 -1210 -631 -1242 l-29 -56 -513 1041 c-282 573
-571 1164 -641 1312 -339 715 -575 1270 -601 1415 -21 116 -32 147 -61 183
-62 75 -163 90 -245 35z" />

<path d="M6034 5848 c-63 -43 -74 -73 -50 -141 188 -541 2138 -4506 2554
-5194 67 -110 97 -139 136 -129 76 19 213 222 468 691 547 1008 2039 4002
2269 4554 21 51 39 106 39 121 0 86 -144 110 -675 110 -602 0 -1198 -25 -1355
-57 -173 -35 -217 -97 -209 -295 5 -105 25 -141 81 -146 63 -5 118 78 118 179
0 34 60 85 121 103 41 13 94 17 219 17 192 -1 250 -7 250 -28 0 -17 -398 -808
-1245 -2473 -332 -652 -616 -1210 -631 -1242 l-29 -56 -513 1041 c-282 573
-571 1164 -641 1312 -339 715 -575 1270 -601 1415 -21 116 -32 147 -61 183
-62 75 -163 90 -245 35z" stroke="#47E5AC" stroke-width="150px" />

<path d="M2798 5728 c-223 -342 -1233 -2287 -2037 -3924 -507 -1034 -670
-1379 -678 -1446 -5 -31 -1 -41 22 -63 42 -38 122 -58 220 -53 66 2 90 7 112
24 27 21 28 25 29 110 0 74 5 104 31 174 283 781 1583 3470 1678 3470 25 0
243 -373 535 -915 254 -472 610 -1124 917 -1680 278 -504 422 -771 500 -928
54 -110 55 -108 -32 -127 -79 -18 -330 -24 -414 -11 -149 23 -212 70 -251 185
-20 62 -35 85 -47 73 -10 -11 -21 -195 -13 -236 23 -127 125 -141 1000 -141
759 0 991 15 1091 72 67 38 66 85 -9 269 -105 261 -241 546 -713 1484 -474
944 -713 1428 -1188 2405 -386 793 -667 1310 -711 1310 -4 0 -23 -24 -42 -52z"/>

<path d="M2798 5728 c-223 -342 -1233 -2287 -2037 -3924 -507 -1034 -670
-1379 -678 -1446 -5 -31 -1 -41 22 -63 42 -38 122 -58 220 -53 66 2 90 7 112
24 27 21 28 25 29 110 0 74 5 104 31 174 283 781 1583 3470 1678 3470 25 0
243 -373 535 -915 254 -472 610 -1124 917 -1680 278 -504 422 -771 500 -928
54 -110 55 -108 -32 -127 -79 -18 -330 -24 -414 -11 -149 23 -212 70 -251 185
-20 62 -35 85 -47 73 -10 -11 -21 -195 -13 -236 23 -127 125 -141 1000 -141
759 0 991 15 1091 72 67 38 66 85 -9 269 -105 261 -241 546 -713 1484 -474
944 -713 1428 -1188 2405 -386 793 -667 1310 -711 1310 -4 0 -23 -24 -42 -52z" stroke="#47E5AC" stroke-width="150px"/>

</g>
</svg>

